# xmcd
#
# Track frame offsets: 
#        150
#        19925
#        38817
#        58192
#        78975
#        93608
#        114273
#        131131
#        155058
#        178460
#        194598
#        215122
#        237047
#
# Disc length: 3493 seconds
#
# Revision: 0
# Processed by: cddbd v1.4PL0 Copyright (c) Steve Scherf et al.
# Submitted via: ExactAudioCopy v0.95a3
#
DISCID=c00da30d
DTITLE=лЛй╧A2║╒п╓йГф╪║╒юНс╫╨Л - ╤ЧтбюОю╢
DYEAR=2002
DGENRE=Ballad
TTITLE0=╬е╬еячяТлЛ
TTITLE1=╢С╨ёя╫╧йоГ
TTITLE2=╤ЧтбюОю╢
TTITLE3=пЕ╨ЛфЛ
TTITLE4=╦'Оц╥аж
TTITLE5=т╦гвхктГхуяЬ╨цик
TTITLE6=мббЁ╥╙╣дфоляйЛак
TTITLE7=ц╚жВо╞╣д╩╟╤Ы╪гпдио
TTITLE8=тб╧Боб╣д╥Он╡жЯ
TTITLE9=╢С╨ЛтФ╤ЫлПсжоЦ
TTITLE10=╟ктб╧П╩╗╠И╣ь©╙
TTITLE11=пЕ╫Пьр
TTITLE12=л╚яТвН╨Лц╚жВо╞вНгв
EXTD=
EXTT0=
EXTT1=
EXTT2=
EXTT3=
EXTT4=
EXTT5=
EXTT6=
EXTT7=
EXTT8=
EXTT9=
EXTT10=
EXTT11=
EXTT12=
PLAYORDER=
